<mxfile host="app.diagrams.net" modified="2020-08-21T05:41:14.728Z" agent="5.0 (X11; Linux x86_64) AppleWebKit/537.36 (KHTML, like Gecko) Chrome/84.0.4147.125 Safari/537.36" etag="yYZuPtOXyWgEjP5i2vpw" version="13.6.4" type="github">
  <diagram name="Page-1" id="74e2e168-ea6b-b213-b513-2b3c1d86103e">
    <mxGraphModel dx="1635" dy="862" grid="1" gridSize="10" guides="1" tooltips="1" connect="1" arrows="1" fold="1" page="1" pageScale="1" pageWidth="850" pageHeight="1400" background="#ffffff" math="0" shadow="0">
      <root>
        <mxCell id="0" />
        <mxCell id="1" parent="0" />
        <mxCell id="xJg55t27PuIyZlP2slNI-10" style="edgeStyle=orthogonalEdgeStyle;rounded=0;orthogonalLoop=1;jettySize=auto;html=1;entryX=0.5;entryY=0;entryDx=0;entryDy=0;" edge="1" parent="1" source="xJg55t27PuIyZlP2slNI-3" target="xJg55t27PuIyZlP2slNI-4">
          <mxGeometry relative="1" as="geometry" />
        </mxCell>
        <mxCell id="xJg55t27PuIyZlP2slNI-11" style="edgeStyle=orthogonalEdgeStyle;rounded=0;orthogonalLoop=1;jettySize=auto;html=1;" edge="1" parent="1" source="xJg55t27PuIyZlP2slNI-3" target="xJg55t27PuIyZlP2slNI-6">
          <mxGeometry relative="1" as="geometry" />
        </mxCell>
        <mxCell id="xJg55t27PuIyZlP2slNI-12" style="edgeStyle=orthogonalEdgeStyle;rounded=0;orthogonalLoop=1;jettySize=auto;html=1;entryX=0.5;entryY=0;entryDx=0;entryDy=0;" edge="1" parent="1" source="xJg55t27PuIyZlP2slNI-3" target="xJg55t27PuIyZlP2slNI-9">
          <mxGeometry relative="1" as="geometry" />
        </mxCell>
        <mxCell id="xJg55t27PuIyZlP2slNI-13" style="edgeStyle=orthogonalEdgeStyle;rounded=0;orthogonalLoop=1;jettySize=auto;html=1;" edge="1" parent="1" source="xJg55t27PuIyZlP2slNI-3" target="xJg55t27PuIyZlP2slNI-8">
          <mxGeometry relative="1" as="geometry" />
        </mxCell>
        <mxCell id="xJg55t27PuIyZlP2slNI-3" value="Auth Type" style="rounded=1;whiteSpace=wrap;html=1;" vertex="1" parent="1">
          <mxGeometry x="480" y="20" width="120" height="30" as="geometry" />
        </mxCell>
        <mxCell id="xJg55t27PuIyZlP2slNI-15" style="edgeStyle=orthogonalEdgeStyle;rounded=0;orthogonalLoop=1;jettySize=auto;html=1;exitX=0.5;exitY=1;exitDx=0;exitDy=0;entryX=0.5;entryY=0;entryDx=0;entryDy=0;" edge="1" parent="1" source="xJg55t27PuIyZlP2slNI-4" target="xJg55t27PuIyZlP2slNI-14">
          <mxGeometry relative="1" as="geometry" />
        </mxCell>
        <mxCell id="xJg55t27PuIyZlP2slNI-4" value="Creds" style="rounded=0;whiteSpace=wrap;html=1;" vertex="1" parent="1">
          <mxGeometry x="100" y="90" width="120" height="60" as="geometry" />
        </mxCell>
        <mxCell id="xJg55t27PuIyZlP2slNI-19" style="edgeStyle=orthogonalEdgeStyle;rounded=0;orthogonalLoop=1;jettySize=auto;html=1;entryX=0.5;entryY=0;entryDx=0;entryDy=0;" edge="1" parent="1" source="xJg55t27PuIyZlP2slNI-6" target="xJg55t27PuIyZlP2slNI-16">
          <mxGeometry relative="1" as="geometry" />
        </mxCell>
        <mxCell id="xJg55t27PuIyZlP2slNI-6" value="Email" style="rounded=0;whiteSpace=wrap;html=1;" vertex="1" parent="1">
          <mxGeometry x="350" y="90" width="120" height="60" as="geometry" />
        </mxCell>
        <mxCell id="xJg55t27PuIyZlP2slNI-20" style="edgeStyle=orthogonalEdgeStyle;rounded=0;orthogonalLoop=1;jettySize=auto;html=1;" edge="1" parent="1" source="xJg55t27PuIyZlP2slNI-8" target="xJg55t27PuIyZlP2slNI-17">
          <mxGeometry relative="1" as="geometry">
            <mxPoint x="680" y="180" as="targetPoint" />
          </mxGeometry>
        </mxCell>
        <mxCell id="xJg55t27PuIyZlP2slNI-8" value="User" style="rounded=0;whiteSpace=wrap;html=1;" vertex="1" parent="1">
          <mxGeometry x="620" y="90" width="120" height="60" as="geometry" />
        </mxCell>
        <mxCell id="xJg55t27PuIyZlP2slNI-21" style="edgeStyle=orthogonalEdgeStyle;rounded=0;orthogonalLoop=1;jettySize=auto;html=1;entryX=0.5;entryY=0;entryDx=0;entryDy=0;" edge="1" parent="1" source="xJg55t27PuIyZlP2slNI-9" target="xJg55t27PuIyZlP2slNI-18">
          <mxGeometry relative="1" as="geometry" />
        </mxCell>
        <mxCell id="xJg55t27PuIyZlP2slNI-9" value="RSA" style="rounded=0;whiteSpace=wrap;html=1;" vertex="1" parent="1">
          <mxGeometry x="880" y="90" width="120" height="60" as="geometry" />
        </mxCell>
        <mxCell id="xJg55t27PuIyZlP2slNI-26" style="edgeStyle=orthogonalEdgeStyle;rounded=0;orthogonalLoop=1;jettySize=auto;html=1;entryX=0.5;entryY=0;entryDx=0;entryDy=0;entryPerimeter=0;" edge="1" parent="1" source="xJg55t27PuIyZlP2slNI-14" target="xJg55t27PuIyZlP2slNI-22">
          <mxGeometry relative="1" as="geometry" />
        </mxCell>
        <mxCell id="xJg55t27PuIyZlP2slNI-14" value="Email&lt;br&gt;pass&lt;br&gt;token" style="shape=parallelogram;html=1;strokeWidth=2;perimeter=parallelogramPerimeter;whiteSpace=wrap;rounded=1;arcSize=12;size=0.23;" vertex="1" parent="1">
          <mxGeometry x="95" y="190" width="130" height="70" as="geometry" />
        </mxCell>
        <mxCell id="xJg55t27PuIyZlP2slNI-27" style="edgeStyle=orthogonalEdgeStyle;rounded=0;orthogonalLoop=1;jettySize=auto;html=1;entryX=0.5;entryY=0;entryDx=0;entryDy=0;entryPerimeter=0;" edge="1" parent="1" source="xJg55t27PuIyZlP2slNI-16" target="xJg55t27PuIyZlP2slNI-23">
          <mxGeometry relative="1" as="geometry" />
        </mxCell>
        <mxCell id="xJg55t27PuIyZlP2slNI-16" value="Email&lt;br&gt;token" style="shape=parallelogram;html=1;strokeWidth=2;perimeter=parallelogramPerimeter;whiteSpace=wrap;rounded=1;arcSize=12;size=0.23;" vertex="1" parent="1">
          <mxGeometry x="340" y="190" width="130" height="70" as="geometry" />
        </mxCell>
        <mxCell id="xJg55t27PuIyZlP2slNI-28" style="edgeStyle=orthogonalEdgeStyle;rounded=0;orthogonalLoop=1;jettySize=auto;html=1;exitX=0.5;exitY=1;exitDx=0;exitDy=0;" edge="1" parent="1" source="xJg55t27PuIyZlP2slNI-17" target="xJg55t27PuIyZlP2slNI-24">
          <mxGeometry relative="1" as="geometry" />
        </mxCell>
        <mxCell id="xJg55t27PuIyZlP2slNI-17" value="UserId&lt;br&gt;token" style="shape=parallelogram;html=1;strokeWidth=2;perimeter=parallelogramPerimeter;whiteSpace=wrap;rounded=1;arcSize=12;size=0.23;" vertex="1" parent="1">
          <mxGeometry x="610" y="190" width="130" height="70" as="geometry" />
        </mxCell>
        <mxCell id="xJg55t27PuIyZlP2slNI-29" style="edgeStyle=orthogonalEdgeStyle;rounded=0;orthogonalLoop=1;jettySize=auto;html=1;exitX=0.5;exitY=1;exitDx=0;exitDy=0;" edge="1" parent="1" source="xJg55t27PuIyZlP2slNI-18" target="xJg55t27PuIyZlP2slNI-25">
          <mxGeometry relative="1" as="geometry" />
        </mxCell>
        <mxCell id="xJg55t27PuIyZlP2slNI-18" value="Email&lt;br&gt;pass- RSA&lt;br&gt;token" style="shape=parallelogram;html=1;strokeWidth=2;perimeter=parallelogramPerimeter;whiteSpace=wrap;rounded=1;arcSize=12;size=0.23;" vertex="1" parent="1">
          <mxGeometry x="870" y="190" width="130" height="70" as="geometry" />
        </mxCell>
        <mxCell id="xJg55t27PuIyZlP2slNI-30" style="edgeStyle=orthogonalEdgeStyle;rounded=0;orthogonalLoop=1;jettySize=auto;html=1;" edge="1" parent="1" source="xJg55t27PuIyZlP2slNI-22" target="xJg55t27PuIyZlP2slNI-31">
          <mxGeometry relative="1" as="geometry">
            <mxPoint x="310" y="510" as="targetPoint" />
            <Array as="points">
              <mxPoint x="280" y="350" />
              <mxPoint x="280" y="430" />
            </Array>
          </mxGeometry>
        </mxCell>
        <mxCell id="xJg55t27PuIyZlP2slNI-43" style="edgeStyle=orthogonalEdgeStyle;rounded=0;orthogonalLoop=1;jettySize=auto;html=1;" edge="1" parent="1" source="xJg55t27PuIyZlP2slNI-22">
          <mxGeometry relative="1" as="geometry">
            <mxPoint x="150" y="480" as="targetPoint" />
          </mxGeometry>
        </mxCell>
        <mxCell id="xJg55t27PuIyZlP2slNI-22" value="Data Available?" style="strokeWidth=2;html=1;shape=mxgraph.flowchart.decision;whiteSpace=wrap;" vertex="1" parent="1">
          <mxGeometry x="95" y="300" width="110" height="100" as="geometry" />
        </mxCell>
        <mxCell id="xJg55t27PuIyZlP2slNI-39" style="edgeStyle=orthogonalEdgeStyle;rounded=0;orthogonalLoop=1;jettySize=auto;html=1;exitX=1;exitY=0.5;exitDx=0;exitDy=0;exitPerimeter=0;" edge="1" parent="1" source="xJg55t27PuIyZlP2slNI-23">
          <mxGeometry relative="1" as="geometry">
            <mxPoint x="470" y="430" as="targetPoint" />
          </mxGeometry>
        </mxCell>
        <mxCell id="xJg55t27PuIyZlP2slNI-44" style="edgeStyle=orthogonalEdgeStyle;rounded=0;orthogonalLoop=1;jettySize=auto;html=1;exitX=0.5;exitY=1;exitDx=0;exitDy=0;exitPerimeter=0;" edge="1" parent="1" source="xJg55t27PuIyZlP2slNI-23" target="xJg55t27PuIyZlP2slNI-42">
          <mxGeometry relative="1" as="geometry" />
        </mxCell>
        <mxCell id="xJg55t27PuIyZlP2slNI-23" value="Data Available?" style="strokeWidth=2;html=1;shape=mxgraph.flowchart.decision;whiteSpace=wrap;" vertex="1" parent="1">
          <mxGeometry x="340" y="300" width="110" height="100" as="geometry" />
        </mxCell>
        <mxCell id="xJg55t27PuIyZlP2slNI-33" style="edgeStyle=orthogonalEdgeStyle;rounded=0;orthogonalLoop=1;jettySize=auto;html=1;exitX=0;exitY=0.5;exitDx=0;exitDy=0;exitPerimeter=0;entryX=0.75;entryY=0;entryDx=0;entryDy=0;" edge="1" parent="1" source="xJg55t27PuIyZlP2slNI-24" target="xJg55t27PuIyZlP2slNI-31">
          <mxGeometry relative="1" as="geometry" />
        </mxCell>
        <mxCell id="xJg55t27PuIyZlP2slNI-46" style="edgeStyle=orthogonalEdgeStyle;rounded=0;orthogonalLoop=1;jettySize=auto;html=1;" edge="1" parent="1" source="xJg55t27PuIyZlP2slNI-24">
          <mxGeometry relative="1" as="geometry">
            <mxPoint x="675" y="480" as="targetPoint" />
          </mxGeometry>
        </mxCell>
        <mxCell id="xJg55t27PuIyZlP2slNI-24" value="Data Available?" style="strokeWidth=2;html=1;shape=mxgraph.flowchart.decision;whiteSpace=wrap;" vertex="1" parent="1">
          <mxGeometry x="620" y="280" width="110" height="100" as="geometry" />
        </mxCell>
        <mxCell id="xJg55t27PuIyZlP2slNI-34" style="edgeStyle=orthogonalEdgeStyle;rounded=0;orthogonalLoop=1;jettySize=auto;html=1;exitX=0;exitY=0.5;exitDx=0;exitDy=0;exitPerimeter=0;entryX=1;entryY=0.5;entryDx=0;entryDy=0;" edge="1" parent="1" source="xJg55t27PuIyZlP2slNI-25" target="xJg55t27PuIyZlP2slNI-31">
          <mxGeometry relative="1" as="geometry">
            <Array as="points">
              <mxPoint x="800" y="330" />
              <mxPoint x="800" y="430" />
            </Array>
          </mxGeometry>
        </mxCell>
        <mxCell id="xJg55t27PuIyZlP2slNI-51" style="edgeStyle=orthogonalEdgeStyle;rounded=0;orthogonalLoop=1;jettySize=auto;html=1;" edge="1" parent="1" source="xJg55t27PuIyZlP2slNI-25">
          <mxGeometry relative="1" as="geometry">
            <mxPoint x="926" y="480" as="targetPoint" />
          </mxGeometry>
        </mxCell>
        <mxCell id="xJg55t27PuIyZlP2slNI-25" value="Data Available?" style="strokeWidth=2;html=1;shape=mxgraph.flowchart.decision;whiteSpace=wrap;" vertex="1" parent="1">
          <mxGeometry x="870" y="280" width="110" height="100" as="geometry" />
        </mxCell>
        <mxCell id="xJg55t27PuIyZlP2slNI-31" value="URL Invalid&amp;nbsp;" style="rounded=1;whiteSpace=wrap;html=1;" vertex="1" parent="1">
          <mxGeometry x="480" y="400" width="120" height="60" as="geometry" />
        </mxCell>
        <mxCell id="xJg55t27PuIyZlP2slNI-36" value="NO" style="text;html=1;align=center;verticalAlign=middle;resizable=0;points=[];autosize=1;" vertex="1" parent="1">
          <mxGeometry x="835" y="310" width="30" height="20" as="geometry" />
        </mxCell>
        <mxCell id="xJg55t27PuIyZlP2slNI-37" value="NO" style="text;html=1;align=center;verticalAlign=middle;resizable=0;points=[];autosize=1;" vertex="1" parent="1">
          <mxGeometry x="580" y="310" width="30" height="20" as="geometry" />
        </mxCell>
        <mxCell id="xJg55t27PuIyZlP2slNI-38" value="NO" style="text;html=1;align=center;verticalAlign=middle;resizable=0;points=[];autosize=1;" vertex="1" parent="1">
          <mxGeometry x="450" y="330" width="30" height="20" as="geometry" />
        </mxCell>
        <mxCell id="xJg55t27PuIyZlP2slNI-40" value="NO" style="text;html=1;align=center;verticalAlign=middle;resizable=0;points=[];autosize=1;" vertex="1" parent="1">
          <mxGeometry x="205" y="330" width="30" height="20" as="geometry" />
        </mxCell>
        <mxCell id="xJg55t27PuIyZlP2slNI-54" style="edgeStyle=orthogonalEdgeStyle;rounded=0;orthogonalLoop=1;jettySize=auto;html=1;" edge="1" parent="1" source="xJg55t27PuIyZlP2slNI-42">
          <mxGeometry relative="1" as="geometry">
            <mxPoint x="150" y="620" as="targetPoint" />
          </mxGeometry>
        </mxCell>
        <mxCell id="xJg55t27PuIyZlP2slNI-56" style="edgeStyle=orthogonalEdgeStyle;rounded=0;orthogonalLoop=1;jettySize=auto;html=1;" edge="1" parent="1" source="xJg55t27PuIyZlP2slNI-42">
          <mxGeometry relative="1" as="geometry">
            <mxPoint x="310" y="540" as="targetPoint" />
          </mxGeometry>
        </mxCell>
        <mxCell id="xJg55t27PuIyZlP2slNI-64" style="edgeStyle=orthogonalEdgeStyle;rounded=0;orthogonalLoop=1;jettySize=auto;html=1;exitX=0.5;exitY=1;exitDx=0;exitDy=0;exitPerimeter=0;" edge="1" parent="1" source="xJg55t27PuIyZlP2slNI-42" target="xJg55t27PuIyZlP2slNI-62">
          <mxGeometry relative="1" as="geometry" />
        </mxCell>
        <mxCell id="xJg55t27PuIyZlP2slNI-42" value="if course ID exist" style="strokeWidth=2;html=1;shape=mxgraph.flowchart.decision;whiteSpace=wrap;" vertex="1" parent="1">
          <mxGeometry x="85" y="480" width="130" height="120" as="geometry" />
        </mxCell>
        <mxCell id="xJg55t27PuIyZlP2slNI-48" value="YES" style="text;html=1;align=center;verticalAlign=middle;resizable=0;points=[];autosize=1;" vertex="1" parent="1">
          <mxGeometry x="150" y="405" width="40" height="20" as="geometry" />
        </mxCell>
        <mxCell id="xJg55t27PuIyZlP2slNI-49" value="YES" style="text;html=1;align=center;verticalAlign=middle;resizable=0;points=[];autosize=1;" vertex="1" parent="1">
          <mxGeometry x="400" y="405" width="40" height="20" as="geometry" />
        </mxCell>
        <mxCell id="xJg55t27PuIyZlP2slNI-50" value="YES" style="text;html=1;align=center;verticalAlign=middle;resizable=0;points=[];autosize=1;" vertex="1" parent="1">
          <mxGeometry x="680" y="380" width="40" height="20" as="geometry" />
        </mxCell>
        <mxCell id="xJg55t27PuIyZlP2slNI-52" value="YES" style="text;html=1;align=center;verticalAlign=middle;resizable=0;points=[];autosize=1;" vertex="1" parent="1">
          <mxGeometry x="930" y="380" width="40" height="20" as="geometry" />
        </mxCell>
        <mxCell id="xJg55t27PuIyZlP2slNI-55" value="Yes" style="text;html=1;align=center;verticalAlign=middle;resizable=0;points=[];autosize=1;" vertex="1" parent="1">
          <mxGeometry x="152" y="596" width="40" height="20" as="geometry" />
        </mxCell>
        <mxCell id="xJg55t27PuIyZlP2slNI-57" value="No" style="text;html=1;align=center;verticalAlign=middle;resizable=0;points=[];autosize=1;" vertex="1" parent="1">
          <mxGeometry x="210" y="520" width="30" height="20" as="geometry" />
        </mxCell>
        <mxCell id="xJg55t27PuIyZlP2slNI-59" value="" style="endArrow=classic;html=1;" edge="1" parent="1">
          <mxGeometry width="50" height="50" relative="1" as="geometry">
            <mxPoint x="670" y="480" as="sourcePoint" />
            <mxPoint x="150" y="470" as="targetPoint" />
          </mxGeometry>
        </mxCell>
        <mxCell id="xJg55t27PuIyZlP2slNI-61" value="" style="endArrow=none;html=1;" edge="1" parent="1">
          <mxGeometry width="50" height="50" relative="1" as="geometry">
            <mxPoint x="680" y="480" as="sourcePoint" />
            <mxPoint x="920" y="480" as="targetPoint" />
          </mxGeometry>
        </mxCell>
        <mxCell id="xJg55t27PuIyZlP2slNI-66" style="edgeStyle=orthogonalEdgeStyle;rounded=0;orthogonalLoop=1;jettySize=auto;html=1;entryX=0;entryY=0.5;entryDx=0;entryDy=0;entryPerimeter=0;" edge="1" parent="1" source="xJg55t27PuIyZlP2slNI-62" target="xJg55t27PuIyZlP2slNI-65">
          <mxGeometry relative="1" as="geometry" />
        </mxCell>
        <mxCell id="xJg55t27PuIyZlP2slNI-62" value="Check for the survey" style="rounded=1;whiteSpace=wrap;html=1;" vertex="1" parent="1">
          <mxGeometry x="320" y="510" width="120" height="60" as="geometry" />
        </mxCell>
        <mxCell id="xJg55t27PuIyZlP2slNI-67" style="edgeStyle=orthogonalEdgeStyle;rounded=0;orthogonalLoop=1;jettySize=auto;html=1;exitX=1;exitY=0.5;exitDx=0;exitDy=0;exitPerimeter=0;" edge="1" parent="1" source="xJg55t27PuIyZlP2slNI-65">
          <mxGeometry relative="1" as="geometry">
            <mxPoint x="690" y="556" as="targetPoint" />
          </mxGeometry>
        </mxCell>
        <mxCell id="xJg55t27PuIyZlP2slNI-68" style="edgeStyle=orthogonalEdgeStyle;rounded=0;orthogonalLoop=1;jettySize=auto;html=1;exitX=0.5;exitY=1;exitDx=0;exitDy=0;exitPerimeter=0;" edge="1" parent="1" source="xJg55t27PuIyZlP2slNI-65">
          <mxGeometry relative="1" as="geometry">
            <mxPoint x="710" y="670" as="targetPoint" />
          </mxGeometry>
        </mxCell>
        <mxCell id="xJg55t27PuIyZlP2slNI-65" value="if survey data exist" style="strokeWidth=2;html=1;shape=mxgraph.flowchart.decision;whiteSpace=wrap;" vertex="1" parent="1">
          <mxGeometry x="490" y="496" width="130" height="120" as="geometry" />
        </mxCell>
        <mxCell id="xJg55t27PuIyZlP2slNI-69" value="Yes" style="text;html=1;align=center;verticalAlign=middle;resizable=0;points=[];autosize=1;" vertex="1" parent="1">
          <mxGeometry x="560" y="620" width="40" height="20" as="geometry" />
        </mxCell>
        <mxCell id="xJg55t27PuIyZlP2slNI-70" value="No" style="text;html=1;align=center;verticalAlign=middle;resizable=0;points=[];autosize=1;" vertex="1" parent="1">
          <mxGeometry x="620" y="530" width="30" height="20" as="geometry" />
        </mxCell>
        <mxCell id="xJg55t27PuIyZlP2slNI-82" style="edgeStyle=orthogonalEdgeStyle;rounded=0;orthogonalLoop=1;jettySize=auto;html=1;" edge="1" parent="1" source="xJg55t27PuIyZlP2slNI-71">
          <mxGeometry relative="1" as="geometry">
            <mxPoint x="710" y="680" as="targetPoint" />
          </mxGeometry>
        </mxCell>
        <mxCell id="xJg55t27PuIyZlP2slNI-71" value="Exam Date Choose" style="html=1;strokeWidth=2;shape=manualInput;whiteSpace=wrap;rounded=1;size=26;arcSize=11;" vertex="1" parent="1">
          <mxGeometry x="690" y="510" width="100" height="76" as="geometry" />
        </mxCell>
        <mxCell id="xJg55t27PuIyZlP2slNI-81" value="" style="group" vertex="1" connectable="0" parent="1">
          <mxGeometry x="616" y="840" width="440" height="300" as="geometry" />
        </mxCell>
        <mxCell id="xJg55t27PuIyZlP2slNI-74" style="edgeStyle=orthogonalEdgeStyle;rounded=0;orthogonalLoop=1;jettySize=auto;html=1;exitX=0.5;exitY=1;exitDx=0;exitDy=0;exitPerimeter=0;" edge="1" parent="xJg55t27PuIyZlP2slNI-81" source="xJg55t27PuIyZlP2slNI-72">
          <mxGeometry relative="1" as="geometry">
            <mxPoint x="95" y="230" as="targetPoint" />
          </mxGeometry>
        </mxCell>
        <mxCell id="xJg55t27PuIyZlP2slNI-76" style="edgeStyle=orthogonalEdgeStyle;rounded=0;orthogonalLoop=1;jettySize=auto;html=1;exitX=1;exitY=0.5;exitDx=0;exitDy=0;exitPerimeter=0;" edge="1" parent="xJg55t27PuIyZlP2slNI-81" source="xJg55t27PuIyZlP2slNI-72">
          <mxGeometry relative="1" as="geometry">
            <mxPoint x="320" y="80" as="targetPoint" />
          </mxGeometry>
        </mxCell>
        <mxCell id="xJg55t27PuIyZlP2slNI-80" value="" style="group" vertex="1" connectable="0" parent="xJg55t27PuIyZlP2slNI-81">
          <mxGeometry width="440" height="300" as="geometry" />
        </mxCell>
        <mxCell id="xJg55t27PuIyZlP2slNI-72" value="the next Prop if available" style="strokeWidth=2;html=1;shape=mxgraph.flowchart.decision;whiteSpace=wrap;" vertex="1" parent="xJg55t27PuIyZlP2slNI-80">
          <mxGeometry width="190" height="180" as="geometry" />
        </mxCell>
        <mxCell id="xJg55t27PuIyZlP2slNI-75" value="Yes" style="text;html=1;align=center;verticalAlign=middle;resizable=0;points=[];autosize=1;" vertex="1" parent="xJg55t27PuIyZlP2slNI-80">
          <mxGeometry x="90" y="180" width="40" height="20" as="geometry" />
        </mxCell>
        <mxCell id="xJg55t27PuIyZlP2slNI-77" value="NO" style="text;html=1;align=center;verticalAlign=middle;resizable=0;points=[];autosize=1;" vertex="1" parent="xJg55t27PuIyZlP2slNI-80">
          <mxGeometry x="195" y="70" width="30" height="20" as="geometry" />
        </mxCell>
        <mxCell id="xJg55t27PuIyZlP2slNI-78" value="GO to dashboard" style="rounded=1;whiteSpace=wrap;html=1;" vertex="1" parent="xJg55t27PuIyZlP2slNI-80">
          <mxGeometry x="320" y="60" width="120" height="60" as="geometry" />
        </mxCell>
        <mxCell id="xJg55t27PuIyZlP2slNI-79" value="Go to Next page&amp;nbsp;" style="rounded=1;whiteSpace=wrap;html=1;" vertex="1" parent="xJg55t27PuIyZlP2slNI-80">
          <mxGeometry x="35" y="240" width="120" height="60" as="geometry" />
        </mxCell>
        <mxCell id="xJg55t27PuIyZlP2slNI-85" style="edgeStyle=orthogonalEdgeStyle;rounded=0;orthogonalLoop=1;jettySize=auto;html=1;" edge="1" parent="1" source="xJg55t27PuIyZlP2slNI-83">
          <mxGeometry relative="1" as="geometry">
            <mxPoint x="710" y="840" as="targetPoint" />
          </mxGeometry>
        </mxCell>
        <mxCell id="xJg55t27PuIyZlP2slNI-95" style="edgeStyle=orthogonalEdgeStyle;rounded=0;orthogonalLoop=1;jettySize=auto;html=1;" edge="1" parent="1" source="xJg55t27PuIyZlP2slNI-83" target="xJg55t27PuIyZlP2slNI-89">
          <mxGeometry relative="1" as="geometry" />
        </mxCell>
        <mxCell id="xJg55t27PuIyZlP2slNI-83" value="Check for Cookie&lt;br&gt;exist ?" style="strokeWidth=2;html=1;shape=mxgraph.flowchart.decision;whiteSpace=wrap;" vertex="1" parent="1">
          <mxGeometry x="650" y="680" width="120" height="100" as="geometry" />
        </mxCell>
        <mxCell id="xJg55t27PuIyZlP2slNI-87" value="Yes" style="text;html=1;align=center;verticalAlign=middle;resizable=0;points=[];autosize=1;" vertex="1" parent="1">
          <mxGeometry x="710" y="780" width="40" height="20" as="geometry" />
        </mxCell>
        <mxCell id="xJg55t27PuIyZlP2slNI-88" value="NO" style="text;html=1;align=center;verticalAlign=middle;resizable=0;points=[];autosize=1;" vertex="1" parent="1">
          <mxGeometry x="770" y="700" width="30" height="20" as="geometry" />
        </mxCell>
        <mxCell id="xJg55t27PuIyZlP2slNI-90" style="edgeStyle=orthogonalEdgeStyle;rounded=0;orthogonalLoop=1;jettySize=auto;html=1;" edge="1" parent="1" source="xJg55t27PuIyZlP2slNI-89">
          <mxGeometry relative="1" as="geometry">
            <mxPoint x="1110" y="720" as="targetPoint" />
          </mxGeometry>
        </mxCell>
        <mxCell id="xJg55t27PuIyZlP2slNI-89" value="Fetch Data based on authType" style="shape=parallelogram;html=1;strokeWidth=2;perimeter=parallelogramPerimeter;whiteSpace=wrap;rounded=1;arcSize=12;size=0.23;" vertex="1" parent="1">
          <mxGeometry x="850" y="670" width="160" height="100" as="geometry" />
        </mxCell>
        <mxCell id="xJg55t27PuIyZlP2slNI-92" style="edgeStyle=orthogonalEdgeStyle;rounded=0;orthogonalLoop=1;jettySize=auto;html=1;" edge="1" parent="1" source="xJg55t27PuIyZlP2slNI-91">
          <mxGeometry relative="1" as="geometry">
            <mxPoint x="1170" y="800" as="targetPoint" />
          </mxGeometry>
        </mxCell>
        <mxCell id="xJg55t27PuIyZlP2slNI-91" value="Set Cookie TOken" style="rounded=1;whiteSpace=wrap;html=1;" vertex="1" parent="1">
          <mxGeometry x="1110" y="690" width="120" height="60" as="geometry" />
        </mxCell>
        <mxCell id="xJg55t27PuIyZlP2slNI-93" value="" style="endArrow=classic;html=1;" edge="1" parent="1">
          <mxGeometry width="50" height="50" relative="1" as="geometry">
            <mxPoint x="1170" y="800" as="sourcePoint" />
            <mxPoint x="710" y="810" as="targetPoint" />
          </mxGeometry>
        </mxCell>
        <mxCell id="xJg55t27PuIyZlP2slNI-94" value="We need to check Authtype to call differnt API" style="shape=callout;whiteSpace=wrap;html=1;perimeter=calloutPerimeter;" vertex="1" parent="1">
          <mxGeometry x="920" y="586" width="120" height="80" as="geometry" />
        </mxCell>
      </root>
    </mxGraphModel>
  </diagram>
</mxfile>
